<svg width="23" height="21" viewBox="0 0 23 21" fill="none" xmlns="http://www.w3.org/2000/svg">
<path d="M0.04 16.5203C0.106667 16.4137 0.213333 16.407 0.36 16.5003C3.66103 18.4251 7.41891 19.4267 11.24 19.4003C13.8878 19.3939 16.5118 18.8989 18.98 17.9403C19.0467 17.9137 19.1433 17.8737 19.27 17.8203C19.3967 17.767 19.4867 17.727 19.54 17.7003C19.619 17.6572 19.7114 17.6457 19.7986 17.6679C19.8858 17.6902 19.9613 17.7446 20.01 17.8203C20.1233 17.9803 20.0867 18.127 19.9 18.2603C19.66 18.4337 19.3533 18.6337 18.98 18.8603C17.7795 19.5626 16.4871 20.0943 15.14 20.4403C13.79 20.8052 12.3984 20.9934 11 21.0003C8.98223 21.0119 6.98045 20.642 5.1 19.9103C3.26791 19.1968 1.58056 18.1566 0.12 16.8403C0.0864675 16.8179 0.058315 16.7884 0.0375663 16.7538C0.0168176 16.7192 0.00398808 16.6805 0 16.6403C0.000998877 16.5972 0.0149355 16.5554 0.04 16.5203ZM6.06 10.8203C6.03602 9.98212 6.27369 9.15725 6.74 8.46032C7.20442 7.79805 7.85033 7.2841 8.6 6.98032C9.45242 6.64004 10.3474 6.41798 11.26 6.32032C11.62 6.28032 12.2067 6.22699 13.02 6.16032V5.82032C13.0705 5.23265 12.9743 4.64162 12.74 4.10032C12.5887 3.89684 12.3882 3.73506 12.1574 3.63013C11.9265 3.52519 11.6728 3.48053 11.42 3.50032H11.26C10.848 3.52993 10.4527 3.67554 10.12 3.92032C9.79671 4.16545 9.5758 4.52175 9.5 4.92032C9.4921 5.02996 9.44883 5.13407 9.37671 5.21702C9.30458 5.29997 9.20748 5.35727 9.1 5.38032L6.8 5.10032C6.57333 5.04699 6.46 4.92699 6.46 4.74032C6.461 4.69302 6.46772 4.64601 6.48 4.60032C6.55744 4.0677 6.74616 3.55736 7.03389 3.1025C7.32162 2.64765 7.70191 2.25848 8.15 1.96032C9.08405 1.37206 10.1569 1.04089 11.26 1.00032H11.76C13.0541 0.922544 14.3286 1.34499 15.32 2.18032C15.4538 2.31426 15.5775 2.45799 15.69 2.61032C15.7886 2.74114 15.8788 2.87809 15.96 3.02032C16.0426 3.185 16.1031 3.35984 16.14 3.54032C16.1933 3.76699 16.2333 3.92366 16.26 4.01032C16.2984 4.19456 16.3185 4.38214 16.32 4.57032C16.3333 4.85699 16.34 5.02699 16.34 5.08032V9.92032C16.3362 10.2432 16.3869 10.5644 16.49 10.8703C16.5575 11.0894 16.6551 11.2981 16.78 11.4903C16.8733 11.617 17.0267 11.8203 17.24 12.1003C17.3102 12.1931 17.3519 12.3043 17.36 12.4203C17.3581 12.4765 17.3425 12.5313 17.3146 12.5801C17.2867 12.6289 17.2474 12.6701 17.2 12.7003C16.0933 13.6603 15.4933 14.1803 15.4 14.2603C15.3164 14.3198 15.218 14.3549 15.1156 14.362C15.0133 14.3691 14.911 14.3477 14.82 14.3003C14.6333 14.1403 14.47 13.987 14.33 13.8403C14.19 13.6937 14.09 13.587 14.03 13.5203C13.9263 13.3957 13.8295 13.2655 13.74 13.1303C13.6067 12.937 13.5133 12.807 13.46 12.7403C12.8814 13.4407 12.1198 13.9669 11.26 14.2603C10.7122 14.4055 10.1466 14.4728 9.58 14.4603C9.1164 14.4773 8.65405 14.4021 8.21974 14.239C7.78544 14.0759 7.38784 13.8282 7.05 13.5103C6.70721 13.1553 6.44214 12.7327 6.27169 12.2696C6.10124 11.8064 6.02915 11.3129 6.06 10.8203ZM9.5 10.4203C9.47735 10.8701 9.6156 11.3132 9.89 11.6703C10.0169 11.8243 10.1777 11.9469 10.3599 12.0284C10.542 12.11 10.7406 12.1483 10.94 12.1403C10.9971 12.1384 11.054 12.1317 11.11 12.1203C11.1594 12.11 11.2096 12.1033 11.26 12.1003C11.5415 12.0241 11.8033 11.8882 12.0276 11.7018C12.2519 11.5155 12.4335 11.2831 12.56 11.0203C12.7091 10.7609 12.8202 10.4813 12.89 10.1903C12.9536 9.95147 12.9938 9.70698 13.01 9.46032C13.0167 9.27365 13.02 8.96699 13.02 8.54032V8.04032C12.429 8.02205 11.838 8.07578 11.26 8.20032C10.7468 8.29305 10.2851 8.56961 9.96112 8.97824C9.63717 9.38686 9.47323 9.89955 9.5 10.4203ZM17.9 16.8603C17.9312 16.8009 17.9717 16.7469 18.02 16.7003C18.3115 16.4935 18.6361 16.3379 18.98 16.2403C19.4633 16.1104 19.9599 16.0366 20.46 16.0203C20.5869 16.0066 20.7152 16.0134 20.84 16.0403C21.44 16.0937 21.8 16.1937 21.92 16.3403C21.9806 16.4502 22.0084 16.5751 22 16.7003V16.8403C21.9775 17.4092 21.8486 17.9689 21.62 18.4903C21.3975 19.0795 21.0334 19.605 20.56 20.0203C20.5106 20.0664 20.4473 20.0945 20.38 20.1003C20.3521 20.1 20.3247 20.0932 20.3 20.0803C20.22 20.0403 20.2 19.967 20.24 19.8603C20.6196 19.1005 20.8697 18.2825 20.98 17.4403C20.9893 17.3278 20.9612 17.2153 20.9 17.1203C20.7667 16.9603 20.3933 16.8803 19.78 16.8803C19.5533 16.8803 19.2867 16.8937 18.98 16.9203C18.6467 16.9603 18.34 17.0003 18.06 17.0403C18.0036 17.0471 17.9466 17.0328 17.9 17.0003C17.888 16.9913 17.8794 16.9784 17.8758 16.9639C17.8721 16.9493 17.8736 16.9339 17.88 16.9203C17.8824 16.8991 17.8892 16.8787 17.9 16.8603Z" fill="#374151"/>
</svg>
