<svg width="24" height="24" viewBox="0 0 24 24" fill="none" xmlns="http://www.w3.org/2000/svg">
<path fill-rule="evenodd" clip-rule="evenodd" d="M13.5549 10.545C13.2616 11.1869 12.8336 11.7581 12.3 12.22C13.6384 12.826 14.7828 13.7884 15.6092 15H13V15.0279C11.903 14.0466 10.4797 13.5 9 13.5C7.4087 13.5 5.88258 14.1321 4.75736 15.2574C3.63214 16.3826 3 17.9087 3 19.5C3 19.7652 2.89464 20.0196 2.70711 20.2071C2.51957 20.3946 2.26522 20.5 2 20.5C1.73478 20.5 1.48043 20.3946 1.29289 20.2071C1.10536 20.0196 1 19.7652 1 19.5C1.00147 17.9633 1.4455 16.4596 2.27898 15.1685C3.11247 13.8775 4.30014 12.8539 5.7 12.22C5.16642 11.7581 4.73845 11.1869 4.44513 10.545C4.1518 9.90316 3.99999 9.20571 4 8.5C4 7.17392 4.52678 5.90215 5.46447 4.96447C6.40215 4.02678 7.67392 3.5 9 3.5C10.3261 3.5 11.5979 4.02678 12.5355 4.96447C13.4732 5.90215 14 7.17392 14 8.5C14 9.20571 13.8482 9.90316 13.5549 10.545ZM21.7918 15C21.0542 13.704 20.0057 12.611 18.74 11.82C19.38 11.0993 19.798 10.2091 19.9438 9.25634C20.0896 8.30362 19.9569 7.32907 19.5618 6.45C19.1666 5.57093 18.5258 4.8248 17.7165 4.30142C16.9071 3.77805 15.9638 3.49974 15 3.5C14.7348 3.5 14.4804 3.60536 14.2929 3.79289C14.1054 3.98043 14 4.23478 14 4.5C14 4.76522 14.1054 5.01957 14.2929 5.20711C14.4804 5.39464 14.7348 5.5 15 5.5C15.7956 5.5 16.5587 5.81607 17.1213 6.37868C17.6839 6.94129 18 7.70435 18 8.5C17.9986 9.02524 17.8593 9.5409 17.5961 9.99542C17.3328 10.4499 16.9549 10.8274 16.5 11.09C16.3517 11.1755 16.2279 11.2977 16.1404 11.4447C16.0528 11.5918 16.0045 11.7589 16 11.93C15.9958 12.0998 16.0349 12.2678 16.1137 12.4183C16.1924 12.5687 16.3081 12.6967 16.45 12.79L16.84 13.05L16.97 13.12C17.9046 13.5633 18.7259 14.2065 19.3781 15H21.7918ZM7.33329 10.9944C7.82664 11.3241 8.40666 11.5 9 11.5C9.79565 11.5 10.5587 11.1839 11.1213 10.6213C11.6839 10.0587 12 9.29565 12 8.5C12 7.90666 11.8241 7.32664 11.4944 6.83329C11.1648 6.33994 10.6962 5.95542 10.1481 5.72836C9.59987 5.5013 8.99667 5.44189 8.41473 5.55764C7.83279 5.6734 7.29824 5.95912 6.87868 6.37868C6.45912 6.79824 6.1734 7.33279 6.05764 7.91473C5.94189 8.49667 6.0013 9.09987 6.22836 9.64805C6.45542 10.1962 6.83994 10.6648 7.33329 10.9944Z" fill="#374151"/>
<path d="M16.354 16.0638C16.7799 15.9789 17.2197 15.9787 17.6457 16.0632C17.674 16.2411 17.7443 16.4107 17.8511 16.5593C17.958 16.7079 18.0987 16.8318 18.2629 16.9216C18.4269 17.0117 18.6102 17.0656 18.7992 17.0791C18.9882 17.0927 19.1779 17.0656 19.3543 16.9999C19.6443 17.3082 19.8639 17.6702 19.9994 18.0632C19.8514 18.1755 19.732 18.3181 19.65 18.4803C19.568 18.6425 19.5256 18.8202 19.5258 19.0001C19.5258 19.3793 19.7108 19.7173 20 19.9371C19.8637 20.3297 19.6438 20.6915 19.354 20.9998C19.1777 20.9341 18.988 20.9071 18.7991 20.9206C18.6101 20.9342 18.4269 20.988 18.2629 21.0781C18.0989 21.1679 17.9582 21.2916 17.8514 21.4402C17.7446 21.5887 17.6744 21.7581 17.646 21.9359C17.2201 22.021 16.7804 22.0214 16.3543 21.9371C16.3261 21.759 16.2559 21.5892 16.1491 21.4405C16.0422 21.2917 15.9014 21.1677 15.7371 21.0778C15.573 20.9877 15.3897 20.9339 15.2008 20.9204C15.0118 20.9069 14.8221 20.9341 14.6457 20.9998C14.3557 20.6914 14.1361 20.3293 14.0006 19.9362C14.1485 19.824 14.2679 19.6815 14.3499 19.5194C14.4318 19.3573 14.4744 19.1797 14.4742 18.9998C14.4744 18.8199 14.4318 18.6421 14.3497 18.4799C14.2676 18.3177 14.1481 18.1751 14 18.0629C14.1363 17.6703 14.3562 17.3085 14.646 17.0002C14.8223 17.0659 15.012 17.0929 15.2009 17.0794C15.3899 17.0658 15.5731 17.012 15.7371 16.9219C15.9011 16.8321 16.0418 16.7084 16.1486 16.5598C16.2554 16.4113 16.3256 16.2419 16.354 16.0641V16.0638ZM17 19.9C17.2512 19.9 17.4921 19.8052 17.6697 19.6364C17.8474 19.4677 17.9472 19.2388 17.9472 19.0001C17.9472 18.7615 17.8474 18.5326 17.6697 18.3639C17.4921 18.1951 17.2512 18.1003 17 18.1003C16.7488 18.1003 16.5079 18.1951 16.3302 18.3639C16.1526 18.5326 16.0528 18.7615 16.0528 19.0001C16.0528 19.2388 16.1526 19.4677 16.3302 19.6364C16.5079 19.8052 16.7488 19.9 17 19.9V19.9Z" fill="#374151"/>
</svg>
