<svg width="24" height="24" viewBox="0 0 24 24" fill="none" xmlns="http://www.w3.org/2000/svg">
<path fill-rule="evenodd" clip-rule="evenodd" d="M17.7577 9.68407C17.4065 10.881 16.6909 11.9388 15.7105 12.7101C17.0111 13.2263 18.1845 14.0079 19.1583 15H15.8878C14.7121 14.3508 13.3828 14.0032 12.0205 14.0032C10.0534 14.0032 8.15524 14.7279 6.6887 16.0389C5.22217 17.3499 4.29007 19.1553 4.07049 21.1101C4.04131 21.3753 3.90798 21.6181 3.69981 21.785C3.49164 21.9519 3.2257 22.0293 2.96049 22.0001C2.69527 21.971 2.4525 21.8376 2.2856 21.6294C2.20295 21.5264 2.14142 21.408 2.10451 21.2812C2.0676 21.1543 2.05604 21.0214 2.07048 20.8901C2.27005 19.0914 2.95398 17.3806 4.04938 15.94C5.14477 14.4995 6.61056 13.3832 8.29049 12.7101C7.31009 11.9388 6.5945 10.881 6.24325 9.68407C5.892 8.48709 5.92257 7.21039 6.3307 6.03159C6.73883 4.85279 7.50423 3.83052 8.52042 3.10698C9.5366 2.38344 10.753 1.99463 12.0005 1.99463C13.2479 1.99463 14.4644 2.38344 15.4806 3.10698C16.4967 3.83052 17.2621 4.85279 17.6703 6.03159C18.0784 7.21039 18.109 8.48709 17.7577 9.68407ZM9.77821 11.326C10.436 11.7655 11.2094 12.0001 12.0005 12.0001C13.0614 12.0001 14.0788 11.5787 14.8289 10.8286C15.5791 10.0784 16.0005 9.06099 16.0005 8.00012C16.0005 7.209 15.7659 6.43564 15.3264 5.77784C14.8868 5.12005 14.2621 4.60736 13.5312 4.30461C12.8003 4.00186 11.996 3.92264 11.2201 4.07698C10.4442 4.23132 9.73147 4.61229 9.17206 5.1717C8.61265 5.73111 8.23169 6.44384 8.07734 7.21976C7.923 7.99569 8.00222 8.79995 8.30497 9.53086C8.60772 10.2618 9.12041 10.8865 9.77821 11.326Z" fill="#374151"/>
<path d="M16.354 16.0638C16.7799 15.9789 17.2197 15.9787 17.6457 16.0632C17.674 16.2411 17.7443 16.4107 17.8511 16.5593C17.958 16.7079 18.0987 16.8318 18.2629 16.9216C18.4269 17.0117 18.6102 17.0656 18.7992 17.0791C18.9882 17.0927 19.1779 17.0656 19.3543 16.9999C19.6443 17.3082 19.8639 17.6702 19.9994 18.0632C19.8514 18.1755 19.732 18.3181 19.65 18.4803C19.568 18.6425 19.5256 18.8202 19.5258 19.0001C19.5258 19.3793 19.7108 19.7173 20 19.9371C19.8637 20.3297 19.6438 20.6915 19.354 20.9998C19.1777 20.9341 18.988 20.9071 18.7991 20.9206C18.6101 20.9342 18.4269 20.988 18.2629 21.0781C18.0989 21.1679 17.9582 21.2916 17.8514 21.4402C17.7446 21.5887 17.6744 21.7581 17.646 21.9359C17.2201 22.021 16.7804 22.0214 16.3543 21.9371C16.3261 21.759 16.2559 21.5892 16.1491 21.4405C16.0422 21.2917 15.9014 21.1677 15.7371 21.0778C15.573 20.9877 15.3897 20.9339 15.2008 20.9204C15.0118 20.9069 14.8221 20.9341 14.6457 20.9998C14.3557 20.6914 14.1361 20.3293 14.0006 19.9362C14.1485 19.824 14.2679 19.6815 14.3499 19.5194C14.4318 19.3573 14.4744 19.1797 14.4742 18.9998C14.4744 18.8199 14.4318 18.6421 14.3497 18.4799C14.2676 18.3177 14.1481 18.1751 14 18.0629C14.1363 17.6703 14.3562 17.3085 14.646 17.0002C14.8223 17.0659 15.012 17.0929 15.2009 17.0794C15.3899 17.0658 15.5731 17.012 15.7371 16.9219C15.9011 16.8321 16.0418 16.7084 16.1486 16.5598C16.2554 16.4113 16.3256 16.2419 16.354 16.0641V16.0638ZM17 19.9C17.2512 19.9 17.4921 19.8052 17.6697 19.6364C17.8474 19.4677 17.9472 19.2388 17.9472 19.0001C17.9472 18.7615 17.8474 18.5326 17.6697 18.3639C17.4921 18.1951 17.2512 18.1003 17 18.1003C16.7488 18.1003 16.5079 18.1951 16.3302 18.3639C16.1526 18.5326 16.0528 18.7615 16.0528 19.0001C16.0528 19.2388 16.1526 19.4677 16.3302 19.6364C16.5079 19.8052 16.7488 19.9 17 19.9V19.9Z" fill="#374151"/>
</svg>
