<svg width="16" height="20" viewBox="0 0 16 20" fill="none" xmlns="http://www.w3.org/2000/svg">
<path d="M1.00002 9.00014C1.26523 9.00014 1.51959 8.89478 1.70712 8.70724C1.89466 8.51971 2.00002 8.26536 2.00002 8.00014V4.00014C2.00002 3.73492 1.89466 3.48057 1.70712 3.29303C1.51959 3.1055 1.26523 3.00014 1.00002 3.00014C0.7348 3.00014 0.480446 3.1055 0.29291 3.29303C0.105374 3.48057 1.67143e-05 3.73492 1.67143e-05 4.00014V8.00014C1.67143e-05 8.26536 0.105374 8.51971 0.29291 8.70724C0.480446 8.89478 0.7348 9.00014 1.00002 9.00014ZM0.290017 1.71014C0.43064 1.8489 0.609214 1.94289 0.803203 1.98027C0.997193 2.01764 1.19791 1.99672 1.38002 1.92014C1.5012 1.8695 1.61282 1.79847 1.71002 1.71014C1.79835 1.61294 1.86937 1.50132 1.92002 1.38014C1.976 1.26146 2.0034 1.13132 2.00002 1.00014C2.00078 0.868533 1.97555 0.73807 1.92579 0.616233C1.87602 0.494395 1.8027 0.38358 1.71002 0.290139C1.56939 0.151382 1.39082 0.0573856 1.19683 0.0200115C1.00284 -0.0173626 0.802127 0.00356002 0.620017 0.0801394C0.497265 0.127734 0.38512 0.199099 0.290017 0.290139C0.197335 0.38358 0.12401 0.494395 0.0742455 0.616233C0.0244809 0.73807 -0.000744179 0.868533 1.67143e-05 1.00014C0.0015967 1.13082 0.0287757 1.25992 0.0800166 1.38014C0.130658 1.50132 0.201686 1.61294 0.290017 1.71014ZM13 4.00014H5.00002C4.7348 4.00014 4.48045 4.1055 4.29291 4.29303C4.10537 4.48057 4.00002 4.73492 4.00002 5.00014C4.00002 5.26536 4.10537 5.51971 4.29291 5.70725C4.48045 5.89478 4.7348 6.00014 5.00002 6.00014H13C13.2652 6.00014 13.5196 6.1055 13.7071 6.29303C13.8947 6.48057 14 6.73492 14 7.00014V16.7201L12.43 15.2701C12.2456 15.0975 12.0027 15.001 11.75 15.0001H3.00002C2.7348 15.0001 2.48045 14.8948 2.29291 14.7072C2.10537 14.5197 2.00002 14.2654 2.00002 14.0001V12.0001C2.00002 11.7349 1.89466 11.4806 1.70712 11.293C1.51959 11.1055 1.26523 11.0001 1.00002 11.0001C0.7348 11.0001 0.480446 11.1055 0.29291 11.293C0.105374 11.4806 1.67143e-05 11.7349 1.67143e-05 12.0001V14.0001C1.67143e-05 14.7958 0.316087 15.5588 0.878696 16.1215C1.44131 16.6841 2.20437 17.0001 3.00002 17.0001H11.36L14.36 19.7301C14.5342 19.8937 14.7613 19.9895 15 20.0001C15.1372 19.9986 15.2728 19.9715 15.4 19.9201C15.5789 19.8421 15.731 19.7134 15.8376 19.5499C15.9442 19.3864 16.0007 19.1953 16 19.0001V7.00014C16 6.20449 15.6839 5.44143 15.1213 4.87882C14.5587 4.31621 13.7957 4.00014 13 4.00014Z" fill="#374151"/>
</svg>
